<?xml version="1.0" encoding="utf-8"?>
<!-- Generator: Adobe Illustrator 21.0.2, SVG Export Plug-In . SVG Version: 6.00 Build 0)  -->
<svg version="1.1" id="Layer_1" xmlns="http://www.w3.org/2000/svg" xmlns:xlink="http://www.w3.org/1999/xlink" x="0px" y="0px"
	 viewBox="0 0 150 150" style="enable-background:new 0 0 150 150;" xml:space="preserve">
<style type="text/css">
	.st0{fill:#FFEE00;}
</style>
<path class="st0" d="M123.6,26.2c-1.7-1.9-4.1-3.1-6.6-3.1h-8.4v-2.6c0-3.2-2.6-5.9-5.9-5.9H45.9c-3.2,0-5.9,2.6-5.9,5.9v2.6h-8.4
	c-2.6,0-5,1.1-6.6,3.1c-1.6,1.9-2.3,4.5-1.9,6.9c2.2,13.5,10.7,25.5,22.8,32.1c1.1,2.7,2.4,5.2,3.8,7.5c4.5,7.5,10,12.7,16.1,15.2
	c0.6,6.2-3.5,12.2-9.8,13.6c0,0,0,0,0,0c-1.2,0.3-2.1,1.4-2.1,2.7V117h-5.2c-4.6,0-8.3,3.7-8.3,8.3v6.6c0,1.5,1.2,2.8,2.8,2.8h62.8
	c1.5,0,2.8-1.2,2.8-2.8v-6.6c0-4.6-3.7-8.3-8.3-8.3h-5.2v-12.7c0-1.3-0.9-2.4-2.1-2.7c0,0,0,0,0,0c-6.3-1.4-10.5-7.4-9.8-13.7
	c6-2.5,11.4-7.7,15.8-15.1c1.4-2.3,2.6-4.9,3.8-7.5c12.1-6.6,20.6-18.5,22.8-32.1C126,30.7,125.3,28.2,123.6,26.2z M28.5,32.3
	c-0.1-0.9,0.1-1.8,0.7-2.5c0.6-0.7,1.5-1.1,2.4-1.1H40v5.1c0,8,1,15.8,3,22.9C35.3,50.7,30.1,41.9,28.5,32.3z M103.1,125.3v3.8H45.8
	v-3.8c0-1.5,1.2-2.8,2.8-2.8h51.7C101.8,122.5,103.1,123.8,103.1,125.3z M59.3,117v-10h30.3v10H59.3z M82.3,101.5H66.6
	c0.7-0.8,1.3-1.6,1.9-2.5c1.9-2.9,2.8-6.2,2.9-9.5c1,0.1,2,0.2,3,0.2c1.1,0,2.2-0.1,3.2-0.2C77.6,93.9,79.4,98.2,82.3,101.5z
	 M74.3,84.1c-7.4,0-14.5-5-19.9-14.2c-5.7-9.6-8.8-22.4-8.8-36.1V20.5c0-0.2,0.1-0.3,0.3-0.3h56.9c0.2,0,0.3,0.1,0.3,0.3v13.3
	c0,13.7-3.1,26.5-8.8,36.1C88.8,79.1,81.7,84.1,74.3,84.1z M120.1,32.3c-1.6,9.7-6.8,18.4-14.4,24.4c1.9-7.1,3-14.9,3-22.9v-5.1h8.4
	c0.9,0,1.8,0.4,2.4,1.1C120,30.5,120.2,31.4,120.1,32.3z"/>
</svg>
