<?xml version="1.0" encoding="utf-8"?>
<!-- Generator: Adobe Illustrator 21.0.2, SVG Export Plug-In . SVG Version: 6.00 Build 0)  -->
<svg version="1.1" id="Layer_1" xmlns="http://www.w3.org/2000/svg" xmlns:xlink="http://www.w3.org/1999/xlink" x="0px" y="0px"
	 viewBox="0 0 150 150" style="enable-background:new 0 0 150 150;" xml:space="preserve">
<style type="text/css">
	.st0{fill:#FFEE00;stroke:#FFEE00;stroke-miterlimit:10;}
	.st1{fill:#FFEE00;}
</style>
<polygon class="st0" points="100.2,94.4 105.7,94.3 77.9,67.5 57.6,87.8 54.4,84.8 77.8,61.3 108.6,91 108.5,85.9 113,85.9 
	113.1,98.7 100.2,98.8 "/>
<path class="st0" d="M55,90.5L29,65.4c0.3-1.7,1.3-2.6,2.1-4.1l23.8,23l16.9-17.1l3.2,3.1L55,90.5z"/>
<g>
	<path class="st1" d="M75,135.6c-33.1,0-60-26.9-60-60c0-33.1,26.9-60,60-60c24.2,0,45.9,14.4,55.3,36.6c3.1,7.4,4.7,15.3,4.7,23.4
		C135,108.7,108.1,135.6,75,135.6z M75,22c-29.5,0-53.6,24-53.6,53.6c0,29.5,24,53.6,53.6,53.6s53.6-24,53.6-53.6
		c0-7.2-1.4-14.3-4.2-20.9C115.9,34.9,96.6,22,75,22z"/>
</g>
</svg>
